<svg xmlns="http://www.w3.org/2000/svg" width="88" height="88" viewBox="0 0 88 88"><defs><style>.a{fill:#2dca8c;}.b{fill:none;opacity:0;}.c,.d{fill:#fff;}.c{opacity:0.3;}</style></defs><g transform="translate(-978.421 -4903.42)"><circle class="a" cx="44" cy="44" r="44" transform="translate(978.421 4903.42)"/><g transform="translate(999.272 4924.272)"><rect class="b" width="49" height="49" transform="translate(0.149 0.148)"/><path class="c" d="M31.811,14.748a3.075,3.075,0,0,1-2.16-.9l-4.32-4.319a3.055,3.055,0,0,1,0-4.32L29.65.893a3.057,3.057,0,0,1,4.319,0l4.319,4.321a3.055,3.055,0,0,1,0,4.32l-4.318,4.319A3.039,3.039,0,0,1,31.811,14.748Zm-24.437,0a3.04,3.04,0,0,1-2.161-.9L.893,9.535a3.058,3.058,0,0,1,0-4.32L5.214.893a3.058,3.058,0,0,1,4.32,0l4.319,4.321a3.055,3.055,0,0,1,0,4.32L9.534,13.853A3.039,3.039,0,0,1,7.375,14.748Z" transform="translate(4.661 16.88)"/><path class="d" d="M7.375,39.184a3.037,3.037,0,0,1-2.16-.9L.894,33.969A3.031,3.031,0,0,1,0,31.81a3.076,3.076,0,0,1,.894-2.159l4.321-4.319a3.037,3.037,0,0,1,2.16-.9,3.068,3.068,0,0,1,2.159.9l4.319,4.319a3.076,3.076,0,0,1,.894,2.159,3.031,3.031,0,0,1-.894,2.159l-4.319,4.32A3.07,3.07,0,0,1,7.375,39.184Zm0-24.436a3.041,3.041,0,0,1-2.16-.894L.894,9.533a3.055,3.055,0,0,1,0-4.32L5.215.894A3.041,3.041,0,0,1,7.375,0,3.072,3.072,0,0,1,9.534.894l4.319,4.319a3.055,3.055,0,0,1,0,4.32L9.534,13.854A3.072,3.072,0,0,1,7.375,14.748Z" transform="translate(16.879 4.662)"/></g></g></svg>