<svg xmlns="http://www.w3.org/2000/svg" width="90" height="90" viewBox="0 0 90 90"><defs><style>.a{fill:#377dff;}.b{fill:none;opacity:0;}.c,.d{fill:#fff;}.d{opacity:0.3;}</style></defs><g transform="translate(-979.037 -5267.037)"><circle class="a" cx="45" cy="45" r="45" transform="translate(979.037 5267.037)"/><g transform="translate(1000.393 5288.393)"><rect class="b" width="49" height="49" transform="translate(-0.355 -0.355)"/><path class="c" d="M4.034,32.229H34.294a2.018,2.018,0,1,1,0,4.034H2.018A2.018,2.018,0,0,1,0,34.246V1.97a2.018,2.018,0,0,1,4.034,0Z" transform="translate(6.052 6.1)"/><path class="d" d="M3.463,16.515A2.018,2.018,0,0,1,.52,13.755l7.559-8.07a2.018,2.018,0,0,1,2.781-.155l5.967,5.095L24.607.771a2.021,2.021,0,1,1,3.176,2.5L18.7,14.771a2.018,2.018,0,0,1-2.893.285L9.71,9.851Z" transform="translate(14.149 13.107)"/></g></g></svg>