<svg xmlns="http://www.w3.org/2000/svg" width="88" height="88" viewBox="0 0 88 88"><defs><style>.a{fill:#377dff;}.b{fill:none;opacity:0;}.c,.d{fill:#fff;}.c{opacity:0.3;}</style></defs><g transform="translate(-554.994 -4903.994)"><circle class="a" cx="44" cy="44" r="44" transform="translate(554.994 4903.994)"/><g transform="translate(576.997 4925.997)"><rect class="b" width="44" height="44" transform="translate(-0.003 -0.004)"/><path class="c" d="M3.666,5.544H18.332A3.666,3.666,0,0,0,22,1.878V.045h3.666V1.878a7.333,7.333,0,0,1-7.333,7.333H3.666v3.666a1.833,1.833,0,0,1-3.666,0v-11a1.833,1.833,0,1,1,3.666,0Z" transform="translate(9.164 14.619)"/><path class="d" d="M7.332,14.666a7.333,7.333,0,1,1,7.334-7.334A7.341,7.341,0,0,1,7.332,14.666Zm0-11A3.666,3.666,0,1,0,11,7.333,3.67,3.67,0,0,0,7.332,3.668Z" transform="translate(3.666 27.495)"/><path class="d" d="M7.333,14.667a7.333,7.333,0,1,1,7.332-7.333A7.342,7.342,0,0,1,7.333,14.667Zm0-11A3.666,3.666,0,1,0,11,7.334,3.67,3.67,0,0,0,7.333,3.669Z" transform="translate(25.662 1.832)"/><path class="d" d="M7.333,14.667a7.333,7.333,0,1,1,7.332-7.333A7.342,7.342,0,0,1,7.333,14.667Zm0-11A3.666,3.666,0,1,0,11,7.333,3.67,3.67,0,0,0,7.332,3.669Z" transform="translate(3.666 1.832)"/></g></g></svg>