<svg xmlns="http://www.w3.org/2000/svg" width="23" height="23" viewBox="0 0 23 23"><defs><style>.a{fill:#858a8f;}</style></defs><g transform="translate(0.224 -0.292)"><g transform="translate(0 0)"><path class="a" d="M11.5,23h0A11.5,11.5,0,0,1,3.368,3.368,11.5,11.5,0,1,1,19.628,19.627,11.44,11.44,0,0,1,11.5,23Zm1.739-9.891h0l-.063.019a14.9,14.9,0,0,0-5.868,3.656,10.258,10.258,0,0,0-1.837,2.478A9.846,9.846,0,0,0,11.5,21.338a9.736,9.736,0,0,0,3.83-.781h.006a40.958,40.958,0,0,0-2.1-7.446Zm3.938-.609a14.461,14.461,0,0,0-2.1.153,42.654,42.654,0,0,1,1.909,7A9.89,9.89,0,0,0,21.2,13.074,14.429,14.429,0,0,0,17.177,12.5ZM1.683,11.212v.3a9.774,9.774,0,0,0,2.524,6.57,15.64,15.64,0,0,1,7.984-6.48c.136-.046.273-.084.388-.115-.245-.549-.513-1.11-.8-1.667a36.216,36.216,0,0,1-9.951,1.394Zm15.168-.226a23,23,0,0,1,4.469.439A9.754,9.754,0,0,0,19.107,5.31l0-.006a13.164,13.164,0,0,1-5.489,3.872c.258.527.471.993.651,1.424.055.124.106.248.154.369l0,.012.052.128A23.044,23.044,0,0,1,16.851,10.986ZM7.324,2.625h0A9.9,9.9,0,0,0,1.884,9.5V9.5a36.489,36.489,0,0,0,9.082-1.2A63.223,63.223,0,0,0,7.324,2.625ZM11.5,1.69a9.811,9.811,0,0,0-2.3.273,52.924,52.924,0,0,1,3.663,5.754,11.063,11.063,0,0,0,5.152-3.548A9.794,9.794,0,0,0,11.5,1.69Z" transform="translate(-0.224 0.292)"/></g></g></svg>