<svg xmlns="http://www.w3.org/2000/svg" width="90" height="90" viewBox="0 0 90 90"><defs><style>.a{fill:#ff715b;}.b{fill:none;opacity:0;}.c,.d{fill:#fff;}.d{opacity:0.3;}</style></defs><g transform="translate(-131.306 -4904.306)"><circle class="a" cx="45" cy="45" r="45" transform="translate(131.306 4904.306)"/><g transform="translate(152.52 4925.52)"><rect class="b" width="48" height="48" transform="translate(-0.214 -0.214)"/><path class="c" d="M10.919,28.476,0,17.555V1.969a1.97,1.97,0,0,1,3.939,0V15.927L13.7,25.691l4.312-4.312a.985.985,0,0,1,1.681.7V32.5a.985.985,0,0,1-.985.985H8.292a.985.985,0,0,1-.7-1.677Z" transform="translate(21.667 6.207)"/><path class="d" d="M8.3,7.841l3.943,3.943a.985.985,0,0,1-.7,1.681H.985A.985.985,0,0,1,0,12.479V1.915a.985.985,0,0,1,1.681-.7L5.508,5.047,11.474,0l2.545,3.007Z" transform="translate(5.968 26.227)"/></g></g></svg>