<svg xmlns="http://www.w3.org/2000/svg" width="23" height="23" viewBox="0 0 23 23"><defs><style>.a{fill:#858a8f;}</style></defs><g transform="translate(-0.135 -0.292)"><g transform="translate(0 0)"><path class="a" d="M21.318,23H1.675A1.676,1.676,0,0,1,0,21.344V1.655A1.682,1.682,0,0,1,1.676,0H21.318A1.69,1.69,0,0,1,23,1.655V21.344A1.69,1.69,0,0,1,21.318,23Zm-6.9-11.651c1.775,0,1.775,1.683,1.775,2.911V19.6h3.4l0-6.021c0-2.715-.5-5.227-4.089-5.227l-.133,0a3.6,3.6,0,0,0-3.1,1.775h-.044v-1.5H8.966V19.593h3.4V14.165C12.37,12.772,12.613,11.349,14.417,11.349ZM3.4,8.625V19.6H6.823V8.625Zm1.71-5.457A1.978,1.978,0,1,0,7.093,5.145,1.981,1.981,0,0,0,5.114,3.167Z" transform="translate(0.135 0.292)"/></g></g></svg>